HIERARCHY
ROOT Hips
{
  OFFSET -35.2597 29.1586 114.425
  CHANNELS 6 Xposition Yposition Zposition Zrotation Xrotation Yrotation
  JOINT LeftUpLeg
  {
    OFFSET 8.64259 1.95398 -2.38835
    CHANNELS 3 Zrotation Xrotation Yrotation
    JOINT LeftLeg
    {
      OFFSET 43.7702 0 0
      CHANNELS 3 Zrotation Xrotation Yrotation
      JOINT LeftFoot
      {
        OFFSET 40.6238 0 0
        CHANNELS 3 Zrotation Xrotation Yrotation
        JOINT LeftToeBase
        {
          OFFSET 12.7242 0 0
          CHANNELS 3 Zrotation Xrotation Yrotation
          End Site
          {
            OFFSET 0 0 0
          }
        }
      }
    }
  }
  JOINT RightUpLeg
  {
    OFFSET -8.2249 1.95398 -2.59336
    CHANNELS 3 Zrotation Xrotation Yrotation
    JOINT RightLeg
    {
      OFFSET 43.5653 0 0
      CHANNELS 3 Zrotation Xrotation Yrotation
      JOINT RightFoot
      {
        OFFSET 40.6238 0 0
        CHANNELS 3 Zrotation Xrotation Yrotation
        JOINT RightToeBase
        {
          OFFSET 12.7242 0 0
          CHANNELS 3 Zrotation Xrotation Yrotation
          End Site
          {
            OFFSET 0 0 0
          }
        }
      }
    }
  }
  JOINT Spine
  {
    OFFSET 0.165834 0.87714 6.61349
    CHANNELS 3 Zrotation Xrotation Yrotation
    JOINT Spine1
    {
      OFFSET 7.38963 1.71661e-005 0
      CHANNELS 3 Zrotation Xrotation Yrotation
      JOINT Spine2
      {
        OFFSET 11.9445 1.14441e-005 0
        CHANNELS 3 Zrotation Xrotation Yrotation
        JOINT Spine3
        {
          OFFSET 14.7254 4.19617e-005 0
          CHANNELS 3 Zrotation Xrotation Yrotation
          JOINT Spine4
          {
            OFFSET 10.9679 0 0
            CHANNELS 3 Zrotation Xrotation Yrotation
            JOINT RightShoulder
            {
              OFFSET 2.46616 -1.6653 3.69651
              CHANNELS 3 Zrotation Xrotation Yrotation
              JOINT RightArm
              {
                OFFSET 13.0012 0 0
                CHANNELS 3 Zrotation Xrotation Yrotation
                JOINT RightForeArm
                {
                  OFFSET 28.7848 1.62311e-005 0
                  CHANNELS 3 Zrotation Xrotation Yrotation
                  JOINT RightHand
                  {
                    OFFSET 26.5688 1.62095e-005 0
                    CHANNELS 3 Zrotation Xrotation Yrotation
                    End Site
                    {
                      OFFSET 0 0 0
                    }
                  }
                }
              }
            }
            JOINT LeftShoulder
            {
              OFFSET 2.38034 -1.29275 -3.7523
              CHANNELS 3 Zrotation Xrotation Yrotation
              JOINT LeftArm
              {
                OFFSET 16.3182 6.07031e-005 0
                CHANNELS 3 Zrotation Xrotation Yrotation
                JOINT LeftForeArm
                {
                  OFFSET 27.0901 0 0
                  CHANNELS 3 Zrotation Xrotation Yrotation
                  JOINT LeftHand
                  {
                    OFFSET 24.5451 1.51738e-005 0
                    CHANNELS 3 Zrotation Xrotation Yrotation
                    End Site
                    {
                      OFFSET 0 0 0
                    }
                  }
                }
              }
            }
            JOINT Neck
            {
              OFFSET 5.0226 -0.0266342 0
              CHANNELS 3 Zrotation Xrotation Yrotation
              JOINT Head
              {
                OFFSET 6.69364 2.86102e-005 0
                CHANNELS 3 Zrotation Xrotation Yrotation
                End Site
                {
                  OFFSET 0 0 0
                }
              }
            }
          }
        }
      }
    }
  }
}
MOTION
Frames:	12
Frame Time:	0.0416667
-45.7255 58.457 37.3265 61.6945 43.5367 107.292 -43.7726 60.0053 -12.0743 -119.943 53.8164 5.85123 56.2326 -1.04969 11.5398 3.52291 8.28666 -29.251 52.5067 54.7558 -176.909 -117.445 -21.1202 -4.90621 81.7551 -19.3482 -9.8056 13.7552 0.979539 12.6378 0.509827 12.8121 -90.0023 1.24916 1.01665 0.0284717 -10.4214 1.01692 -0.0163099 -32.9595 0.961082 0.332737 -12.9468 0.961093 0.332726 89.3237 -21.8567 -111.824 17.5027 19.0273 -54.5754 -3.4586 -4.44803 -4.8949 -11.9804 3.0095 -34.9143 -88.9448 -32.2818 76.0283 -19.0535 -14.9491 -84.5924 3.21324 33.1558 -4.27456 -9.28765 1.24874 -26.2754 13.4272 -2.06546 -2.57981 -4.61834 -1.31179 -1.34109 
-45.9111 58.4467 37.6699 61.2808 43.8277 106.972 -44.7948 59.6721 -11.9151 -119.589 53.4359 5.77395 56.8356 -0.423815 11.6564 3.38104 7.32022 -27.925 53.5597 56.2286 -176.633 -116.563 -19.5636 -4.80468 84.868 -21.1256 -7.90076 16.3662 0.403198 12.0119 0.461358 12.6608 -90.0118 1.55189 0.91641 0.00314531 -10.1187 0.915671 -0.0372113 -32.6563 0.873102 0.278446 -12.6437 0.873097 0.278443 88.9843 -22.2763 -112.357 16.9371 19.573 -54.0901 -3.56037 -6.93847 -4.88966 -11.2702 2.66995 -33.4421 -89.4163 -33.5135 75.5288 -19.3436 -14.4525 -84.1157 3.18765 33.0373 -4.2308 -9.35779 1.18849 -25.1742 15.9688 -1.95619 -1.6826 -6.47727 -1.33539 -2.07156 
-46.164 58.5866 37.9532 60.2606 43.8692 107.136 -46.6773 59.6526 -11.1691 -119.002 54.0676 5.68112 58.3836 1.16668 12.8451 7.88166 6.89047 -25.7672 55.7295 58.3358 -177.039 -114.572 -16.042 -4.03791 91.114 -23.9817 -3.38753 17.4643 -0.07128 12.3308 0.394687 12.3754 -89.9436 2.12228 0.81001 0.127059 -9.54842 0.814814 0.0912781 -32.0853 0.734368 0.364632 -12.0726 0.734374 0.364635 88.968 -22.8934 -112.071 17.9724 18.5481 -54.3222 -3.68774 -10.0067 -4.89236 -10.3584 2.38232 -32.8255 -89.6433 -32.8141 74.8998 -19.4587 -14.3302 -82.0126 3.20764 32.8707 -4.27416 -13.3618 2.12988 -27.1491 18.4921 -2.26962 -2.24071 -8.31482 -1.44868 -1.24755 
-46.4204 58.8073 38.1957 59.6539 44.3303 107.262 -48.052 59.13 -10.3488 -118.525 55.8167 5.73419 58.3812 1.4822 14.5303 7.88557 5.61032 -23.8169 55.5866 58.4552 -176.61 -113.68 -14.7228 -3.91729 92.6068 -24.9114 -3.06259 16.7704 -0.355229 13.578 0.371242 12.1301 -89.9422 2.6132 0.764112 0.124593 -9.05753 0.768853 0.0908332 -31.5942 0.691329 0.348485 -11.5816 0.691338 0.348471 88.275 -24.3348 -112.822 17.5058 19.005 -54.3923 -3.90917 -15.2434 -4.91143 -13.1499 2.4367 -27.2301 -90.0302 -32.831 74.1958 -19.8462 -13.7392 -80.9407 3.28343 34.5554 -4.35185 -15.045 2.40894 -26.5592 20.5651 -2.74648 -3.05028 -8.7826 -1.71553 0.454264 
-46.5495 59.4212 38.1648 58.9989 44.2859 108.397 -48.5044 59.5081 -9.61979 -116.682 54.9189 4.98832 58.759 1.68577 12.4523 6.81951 6.35712 -25.181 56.3903 58.4769 -177.31 -112.595 -16.4253 -3.63519 91.3174 -24.9223 -4.98674 15.6312 -0.0579298 13.7014 0.448202 11.8523 -90.0514 3.16932 0.87516 -0.0944541 -8.50134 0.870142 -0.13287 -31.0388 0.863076 0.172953 -11.0261 0.863066 0.17296 87.3143 -25.4293 -114.276 15.0595 21.316 -52.5073 -4.24487 -22.8254 -4.98121 -9.91573 1.70335 -26.0853 -90.5557 -33.4182 73.4264 -20.1973 -13.1976 -80.2261 3.38434 36.645 -4.45558 -15.7287 2.54037 -26.4963 21.1816 -3.04816 -3.0823 -8.14632 -2.01828 1.14902 
-46.6664 60.8895 38.1225 57.2286 44.1485 109.613 -50.1632 59.6625 -8.1526 -113.404 55.8703 3.54506 58.5692 1.69667 12.7152 3.81354 6.5487 -26.6934 56.8193 59.3316 -177.891 -109.974 -14.9585 -2.68843 91.6537 -23.2875 -1.38272 14.3367 1.52259 10.9392 0.425614 11.5749 -90.0781 3.72452 0.819038 -0.152628 -7.94617 0.811529 -0.188539 -30.4834 0.827049 0.100608 -10.4707 0.827054 0.100613 87.1011 -25.5981 -114.627 13.8812 22.3255 -51.363 -4.32593 -24.5658 -5.00441 -6.75636 1.18547 -27.8713 -90.7342 -34.1013 73.3266 -20.3468 -12.9421 -80.4919 3.53141 39.4776 -4.60481 -15.9957 2.68523 -27.254 22.1361 -2.89736 -3.0386 -7.54158 -1.84162 0.955526 
-46.716 63.225 38.1118 54.5717 43.5751 111.555 -52.2344 60.6086 -6.92464 -107.633 54.4848 0.912756 57.8579 0.913582 10.9784 4.94397 8.13188 -28.6055 58.4447 60.6474 -178.571 -105.856 -15.8841 -1.0831 89.6266 -22.3984 -2.96482 14.7039 1.14906 11.5226 0.412082 11.2657 -90.048 4.34264 0.803943 -0.100603 -7.32806 0.798729 -0.135888 -29.8652 0.797002 0.145683 -9.85255 0.797004 0.145692 87.281 -25.7455 -114.178 14.3419 21.91 -51.5276 -4.33264 -24.7039 -5.00638 -8.95003 1.65294 -27.8616 -90.7076 -33.5128 73.1823 -20.1611 -13.2461 -80.4378 3.54015 39.7117 -4.61111 -16.5005 2.97333 -28.7256 23.2769 -3.00801 -3.40392 -6.25577 -1.77374 0.892787 
-46.8397 66.4077 37.8645 50.7494 42.8501 113.77 -57.1387 62.054 -4.07013 -99.2283 54.0632 -3.02098 58.4066 1.37676 9.79332 5.35149 5.81991 -24.991 59.9478 62.7348 -179.537 -99.8503 -16.4752 0.991539 88.7149 -21.8292 -3.23957 14.5147 0.818402 12.4391 0.322333 10.8556 -90.0033 5.1627 0.642781 -0.0190016 -6.5081 0.641332 -0.0472886 -29.0445 0.618775 0.175073 -9.03181 0.618783 0.175062 87.0054 -26.4836 -114.361 13.612 22.5653 -51.2278 -4.40714 -26.2573 -5.03038 -8.09085 1.54171 -28.7679 -90.4319 -34.4729 73.9866 -20.2891 -12.9813 -81.5226 3.68227 42.0985 -4.7579 -15.8258 2.72478 -27.9083 24.4215 -2.79149 -2.72941 -4.90227 -1.733 0.344647 
-46.8059 70.3246 37.6575 46.3116 41.7532 116.267 -63.2404 64.1635 -0.341133 -87.9019 56.3638 -8.60633 58.4692 1.66846 10.6771 8.39634 3.05951 -19.8061 63.2218 65.0954 178.165 -91.8805 -18.5145 3.86072 86.1016 -20.6838 -4.94646 15.2247 0.725604 12.1169 0.232731 10.4422 -89.9678 5.98936 0.478505 0.050072 -5.68151 0.480272 0.0289635 -28.2173 0.441347 0.191568 -8.20461 0.441352 0.191567 86.8977 -26.3631 -114.644 12.5455 23.4809 -50.617 -4.49839 -28.1093 -5.05991 -5.82139 1.15205 -30.8486 -90.136 -34.6432 74.5669 -20.4533 -12.7113 -81.7377 3.5534 39.8801 -4.6267 -15.6454 2.71911 -28.2442 27.1626 -2.55184 -2.08637 -3.74931 -1.67886 0.823022 
-46.7076 74.6234 37.2816 41.6295 41.0428 118.935 -72.5975 66.4668 5.39623 -75.8177 53.154 -13.6182 59.2536 2.07046 9.23088 9.77604 4.15166 -20.7824 66.5337 68.3574 175.521 -83.5319 -18.5319 7.10862 82.9511 -18.1225 -5.277 15.5 0.763882 11.814 0.133767 9.99531 -89.954 6.88317 0.286895 0.0785794 -4.78777 0.290076 0.0658797 -27.3231 0.25002 0.161176 -7.31045 0.250018 0.161163 86.765 -26.5576 -114.813 11.5064 24.2584 -49.2173 -4.533 -28.804 -5.0745 -4.69026 1.01883 -33.9062 -90.2728 -34.2356 74.1996 -20.2288 -13.092 -81.1896 3.49029 38.7572 -4.56166 -17.7924 3.65291 -31.3389 29.8586 -2.71655 -1.49853 -2.84693 -2.00037 0.682065 
-46.3313 79.0646 36.7952 38.0535 40.0362 120.701 -85.4658 68.8478 15.0978 -62.797 50.6104 -18.5062 59.226 1.88012 8.84325 15.8597 4.82007 -18.8794 75.1781 71.5578 168.244 -74.0909 -16.2463 10.0346 80.7688 -15.9714 -4.48443 14.9187 0.880403 11.9905 0.116719 9.54099 -89.9165 7.79169 0.269418 0.150529 -3.87923 0.275793 0.138521 -26.4145 0.211738 0.224548 -6.40182 0.211731 0.224552 86.8361 -26.95 -114.465 11.2019 24.3023 -47.4319 -4.58817 -29.889 -5.0957 -5.53935 1.36546 -36.69 -90.2859 -34.7115 74.3245 -20.5756 -12.5844 -80.2808 3.36435 36.1935 -4.43707 -16.4197 3.80715 -35.2469 31.7053 -3.01434 -1.62593 -2.25719 -2.20475 1.63005 
-45.8427 83.2909 36.2087 35.3094 39.1817 122.088 -101.844 70.5295 28.2571 -51.1112 47.0729 -21.4806 59.1947 1.53685 8.44612 18.1171 4.36036 -16.8293 88.982 74.3355 155.918 -64.741 -14.6846 12.448 77.6554 -13.4347 -4.52223 14.3239 1.3734 11.2907 0.108459 9.12101 -89.897 8.63166 0.262116 0.186844 -3.03926 0.270092 0.175115 -25.5744 0.193856 0.256984 -5.5618 0.193836 0.256977 86.7287 -27.6223 -114.339 12.5282 22.9963 -45.9376 -4.234 -22.5905 -4.97978 -7.16802 1.91944 -38.9023 -90.4203 -35.3822 74.2922 -21.2131 -11.6774 -78.7616 3.24398 33.6622 -4.31249 -18.279 4.83761 -38.6362 33.5743 -2.90948 -0.819938 -1.91505 -2.40813 1.20812 
